# xmcd
# 
# Track frame offsets:
#     182
#     930
#     3350
#     21722
#     29235
#     49257
#     58035
#     63405
#     68407
#     76195
#     81755
#     97537
#     107737
#     117192
#     121785
#     129167
#     134592
#     139330
#     144567
#     147640
#     162105
#     165460
#     168995
#     173495
#     177775
#     183355
#     194810
#     209925
# 
# Disc length: 3012
# 
# Revision: 15
# Processed by: cddbd v1.5.2PL0 Copyright (c) Steve Scherf et al.
# Submitted via: fre:ac v1.1beta1pre4
# 
DISCID=870bc21c
DTITLE=Various Artist - The Civil War
DYEAR=1990
DGENRE=Soundtrack
TTITLE0=Drums of War ft. The Old Bethpage Brass Band
TTITLE1=Oliver Wendell Holmes (Quote) ft. Paul Roebling
TTITLE2=Asho ft. Jay Ungar, Matt Glaser, Evan Stover, Russ Barenburg, Molly Mason
TTITLE3=Battle Cry of Freedom ft. Jacqueline Schwab
TTITLE4=We Are Climbing Jacob's Ladder ft. Bernice Johnson Reagon
TTITLE5=Dixie - Bonnie Blue Flag ft. The New American Brass Band
TTITLE6=Cheer Boys Cheer ft. The New American Brass Band
TTITLE7=Angel Band ft. Russ Barenburg and Molly Mason
TTITLE8=Johnny Has Gone for a Soldier ft. Jacqueline Schwab and Jesse Carr
TTITLE9=Lorena ft. Matt Glaser, Jay Ungar, and Molly Mason
TTITLE10=Parade ft. The New American Brass Band
TTITLE11=Hail Columbia ft. The New American Brass Band
TTITLE12=Dixie ft. Bobby Horton
TTITLE13=Kingdom Coming ft. Matt Glaser, Jay Ungar, and Art Baron
TTITLE14=Battle Hymn of the Republic ft. Matt Glaser and Jacqueline Schwab
TTITLE15=All Quiet on the Potomac Tonight ft. Jacqueline Schwab
TTITLE16=Flag of Columbia ft. Jacqueline Schwab
TTITLE17=Weeping Sad and Lonely ft. Peggy James, Jacqueline Schwab, and Jesse Carr
TTITLE18=Yankee Doodle ft. The Old Bethpage Brass Band
TTITLE19=Palmyra Schottische ft. The New American Brass Band
TTITLE20=When Johnny Comes Marching Home ft. The Old Bethpage Brass Band
TTITLE21=Shenandoah ft. John Levy and John Colby
TTITLE22=When Johnny Comes Marching Home ft. Jay Ungar, Yonatin Malin, Jacqueline Schwab, Molly Mason, and Peter Amidon
TTITLE23=Marching through Georgia ft. Jay Ungar, Molly Mason, and Peter Amidon
TTITLE24=Marching Through Georgia (Lament) ft. Jacqueline Schwab
TTITLE25=Battle Cry of Freedom ft. Jacqueline Schwab
TTITLE26=Battle Hymn of the Republic ft. The Abyssinian Baptist Church Sanctuary Choir
TTITLE27=Ashokan Farewell/Sullivan Ballou Le ft. Paul Roebling and David McCullough
EXTD=
EXTT0=
EXTT1=
EXTT2=
EXTT3=
EXTT4=
EXTT5=
EXTT6=
EXTT7=
EXTT8=
EXTT9=
EXTT10=
EXTT11=
EXTT12=
EXTT13=
EXTT14=
EXTT15=
EXTT16=
EXTT17=
EXTT18=
EXTT19=
EXTT20=
EXTT21=
EXTT22=
EXTT23=
EXTT24=
EXTT25=
EXTT26=
EXTT27=
PLAYORDER=
